<svg xmlns="http://www.w3.org/2000/svg" width="83.931" height="90.575" viewBox="0 0 83.931 90.575">
  <path id="AI_ML" d="M57.059,81.222l.456,7.614a1.28,1.28,0,0,1-1,1.269,43.888,43.888,0,0,1-13.776,0,1.129,1.129,0,0,1-1-1.269L42.1,82.31a38.29,38.29,0,0,1-13.5-5.529l-4.379,4.895a1.262,1.262,0,0,1-1.642.181,44.884,44.884,0,0,1-9.762-9.7,1.243,1.243,0,0,1,.182-1.632l4.926-4.351A36.183,36.183,0,0,1,12.356,52.76l-6.569.453a1.285,1.285,0,0,1-1.277-1,43.054,43.054,0,0,1,0-13.687,1.134,1.134,0,0,1,1.277-1l6.569.363A37.774,37.774,0,0,1,17.921,24.48l-4.926-4.351a1.253,1.253,0,0,1-.182-1.632,44.884,44.884,0,0,1,9.762-9.7,1.262,1.262,0,0,1,1.642.181l4.379,4.895a40.083,40.083,0,0,1,13.684-5.62l-.456-6.436a1.129,1.129,0,0,1,1-1.269,48.124,48.124,0,0,1,13.5,0,1.129,1.129,0,0,1,1,1.269l-.639,7.614a1.239,1.239,0,0,1-2.463-.272l.639-6.436a50.733,50.733,0,0,0-10.491,0l.547,6.436a1.129,1.129,0,0,1-1,1.269,35.986,35.986,0,0,0-14.688,5.982,1.262,1.262,0,0,1-1.642-.181l-4.47-4.8a40.046,40.046,0,0,0-7.572,7.614l4.926,4.351a1.243,1.243,0,0,1,.182,1.632,34.4,34.4,0,0,0-6.021,14.322,1.134,1.134,0,0,1-1.277,1L6.791,39.98a41.971,41.971,0,0,0,0,10.7l6.569-.363a1.2,1.2,0,0,1,1.277,1,35.268,35.268,0,0,0,6.021,14.412,1.243,1.243,0,0,1-.182,1.632l-4.926,4.26a43.377,43.377,0,0,0,7.663,7.614l4.379-4.895a1.262,1.262,0,0,1,1.642-.181,34.859,34.859,0,0,0,14.414,5.982,1.129,1.129,0,0,1,1,1.269l-.365,6.526a42.786,42.786,0,0,0,10.765,0L54.687,81.4a1.222,1.222,0,0,1,1.186-1.269,1.068,1.068,0,0,1,1.186,1.088ZM83.515,28.2a3.535,3.535,0,1,1,0,7.07h0a2.93,2.93,0,0,1-1.277-.272l-3.376,3.444a1.175,1.175,0,0,1-.912.363H60.89a1.3,1.3,0,0,1-1.277-1.269,1.366,1.366,0,0,1,1.277-1.269h16.6l2.919-2.991a3.73,3.73,0,0,1-.456-1.722A3.519,3.519,0,0,1,83.515,28.2ZM82.42,31.731a1.095,1.095,0,1,0,1.095-1.088h0a1.106,1.106,0,0,0-1.095,1.088ZM70.1,25.024,74.666,18.5a3.672,3.672,0,0,1-.73-2.175,3.6,3.6,0,1,1,3.649,3.535,2.541,2.541,0,0,1-.821-.091l-5.018,7.161a1.263,1.263,0,0,1-1,.544h-13.5a1.269,1.269,0,1,1,0-2.538h0l12.863.091Zm6.295-8.7a1.095,1.095,0,1,0,1.095-1.088h0A1.106,1.106,0,0,0,76.4,16.322Zm4.379,58.011a3.558,3.558,0,1,1-6.112-2.447L70.1,65.36H57.241a1.3,1.3,0,0,1-1.277-1.269,1.366,1.366,0,0,1,1.277-1.269H70.834a1.146,1.146,0,0,1,1,.544l5.109,7.342h.274a3.689,3.689,0,0,1,3.558,3.626Zm-2.463,0a1.095,1.095,0,1,0-1.095,1.088h0a1.051,1.051,0,0,0,1.095-1.088ZM86.8,59.2a3.558,3.558,0,1,1-6.477-2.085l-2.828-2.9H60.89a1.269,1.269,0,1,1,0-2.538H78.041a1.175,1.175,0,0,1,.912.363l3.467,3.626a2.541,2.541,0,0,1,.821-.091A3.756,3.756,0,0,1,86.8,59.2Zm-2.463,0a1.095,1.095,0,1,0-1.095,1.088h0A1,1,0,0,0,84.336,59.2Zm3.558-13.868a3.494,3.494,0,0,1-3.558,3.535,3.534,3.534,0,0,1-3.376-2.357h-27V68.17a8.106,8.106,0,0,1-15.509,3.263h-.182a8.111,8.111,0,0,1-8.119-8.067v-.634a10.126,10.126,0,0,1-5.2-17.041h0a1.6,1.6,0,0,1,.456-.363c-.182-.091-.274-.272-.456-.363a10.075,10.075,0,0,1,0-14.231h0a10.139,10.139,0,0,1,5.2-2.81V27.29a8.111,8.111,0,0,1,8.119-8.067h.182a8.191,8.191,0,0,1,10.674-4.17A8.045,8.045,0,0,1,53.957,22.4V44.149h27a3.588,3.588,0,0,1,6.933,1.178ZM26.679,43.152a5.853,5.853,0,0,0,1.186.906H51.494V22.4a5.667,5.667,0,0,0-5.656-5.62,5.753,5.753,0,0,0-4.926,2.81,8.435,8.435,0,0,1,2.737,1.632h0a4.321,4.321,0,0,1,1.551-.363,3.551,3.551,0,0,1,3.558,3.535,3.558,3.558,0,0,1-7.116,0h0a2.646,2.646,0,0,1,.365-1.45,5.651,5.651,0,0,0-7.937.544A5.449,5.449,0,0,0,32.7,27.109v.544a10.975,10.975,0,0,1,4.105,1.36,3.389,3.389,0,0,1,1.916-.544A3.551,3.551,0,0,1,42.279,32a3.558,3.558,0,0,1-7.116,0h0a3.24,3.24,0,0,1,.182-1A7.266,7.266,0,0,0,31.7,30.1a7.655,7.655,0,0,0-7.207,8.158,7.394,7.394,0,0,0,2.19,4.895ZM37.535,32.094a1.095,1.095,0,1,0,1.095-1.088h0A1.174,1.174,0,0,0,37.535,32.094ZM45.2,25.568A1.088,1.088,0,1,0,44.1,24.48h0A1,1,0,0,0,45.2,25.568ZM51.494,68.26V46.506H27.774a5.285,5.285,0,0,0-1.095.906A7.679,7.679,0,0,0,26.77,58.29a7.93,7.93,0,0,0,4.835,2.175,7.962,7.962,0,0,0,3.558-.906,2.777,2.777,0,0,1-.091-.906,3.59,3.59,0,1,1,1.551,2.9A9.986,9.986,0,0,1,32.7,62.822v.544a5.667,5.667,0,0,0,5.656,5.62,5.754,5.754,0,0,0,3.649-1.269,3.684,3.684,0,0,1,1.916-4.8,3.727,3.727,0,0,1,4.835,1.9,3.665,3.665,0,0,1-5.018,4.713,8.449,8.449,0,0,1-2.646,1.541,5.6,5.6,0,0,0,7.663,2.085,6.173,6.173,0,0,0,2.737-4.895ZM45.2,67.445A1.088,1.088,0,1,0,44.1,66.357h0A1,1,0,0,0,45.2,67.445ZM38.63,59.831a1.088,1.088,0,1,0-1.095-1.088h0a1.283,1.283,0,0,0,.182.544l.091.091a.089.089,0,0,0,.091.091A.95.95,0,0,0,38.63,59.831Zm46.8-14.5a1.095,1.095,0,1,0-1.095,1.088h0A1.049,1.049,0,0,0,85.431,45.328Z" transform="translate(-3.963 -0.074)" fill="#fff"/>
</svg>
