<svg xmlns="http://www.w3.org/2000/svg" width="97.162" height="92.091" viewBox="0 0 97.162 92.091">
  <g id="electronics_and_communication" transform="translate(1.049)">
    <g id="Group_111" data-name="Group 111" transform="translate(45.206)">
      <g id="Communication">
        <g id="Path_33" transform="translate(6.607 10.387)">
          <path id="Path_113" data-name="Path 113" d="M74.644,92.134c-.445,0-.89-.649-.89-1.206V84.622L60.138,74.7,57.38,82.86a.96.96,0,0,1-.8.742.651.651,0,0,1-.356-.093,1.38,1.38,0,0,1-.356-1.484L73.843,29.442V17.107l-.267-.093a3.272,3.272,0,0,1-2.314-3.246,3.293,3.293,0,1,1,6.586,0,3.38,3.38,0,0,1-2.314,3.246l-.267.093V29.442L93.333,82.211a2.976,2.976,0,0,1,.089.835.82.82,0,0,1-.534.556c-.089,0-.178.093-.356.093h0c-.356,0-.623-.371-.8-.835l-2.937-9L75.534,84.622v6.306C75.534,91.485,75.089,92.134,74.644,92.134Zm.8-10.294,11.836-9.46L75.445,65.7ZM61.651,73.215l.712.556c4,2.875,11.035,7.976,11.391,8.347V65.8Zm-.178-2.133,11.3-6.956-7.386-4.915Zm14.951-7.048,11.124,6.121L83.722,58.562Zm-.979-1.577L82.3,57.542l-6.941-3.617ZM66.9,57.82l6.941,4.637V53.832Zm-.356-1.855,6.319-3.524-4.272-2.782Zm9.789-3.71,6.23,3.339-2.047-6.121Zm-6.319-3.8,3.827,2.319V46.32Zm5.34,2.319,3.738-2.5L75.356,46.32Zm-5.7-4.266,4.183-2.226V33.8Zm5.7-2.226,4.183,2.133-4.183-12.52Zm-.8-32.459a1.532,1.532,0,0,0-1.246.649,1.657,1.657,0,0,0-.445,1.391,1.727,1.727,0,0,0,1.691,1.762h.089a1.576,1.576,0,0,0,1.335-.649,1.657,1.657,0,0,0,.445-1.391,1.788,1.788,0,0,0-1.691-1.762Z" transform="translate(-55.797 -10.43)" fill="#fff"/>
        </g>
        <g id="Group_110" data-name="Group 110">
          <g id="Group_109" data-name="Group 109">
            <g id="Group_93" data-name="Group 93" transform="translate(42.347 0.093)">
              <g id="Group_92" data-name="Group 92">
                <g id="Group_91" data-name="Group 91">
                  <path id="Path_114" data-name="Path 114" d="M93.126,28.278a1.052,1.052,0,0,1-.712-.371,1.017,1.017,0,0,1,.178-1.391,15.545,15.545,0,0,0,6.319-12.149c0-4.637-2.225-8.9-6.319-12.149a.977.977,0,0,1-.356-.742,1.152,1.152,0,0,1,.178-.742,1.083,1.083,0,0,1,.712-.371,1.23,1.23,0,0,1,.534.185c4.628,3.8,7.119,8.532,7.119,13.818s-2.492,10.109-7.03,13.818C93.482,28.185,93.3,28.278,93.126,28.278Z" transform="translate(-92.221 -0.363)" fill="#fff"/>
                </g>
              </g>
            </g>
            <g id="Group_96" data-name="Group 96" transform="translate(16.199 5.657)">
              <g id="Group_95" data-name="Group 95">
                <g id="Group_94" data-name="Group 94">
                  <path id="Path_115" data-name="Path 115" d="M70.289,22.312a1.23,1.23,0,0,1-.534-.185,10.226,10.226,0,0,1-4.183-8.161A10.9,10.9,0,0,1,69.666,5.99a1.248,1.248,0,0,1,.623-.185A1.052,1.052,0,0,1,71,6.175a1.017,1.017,0,0,1-.178,1.391,8.655,8.655,0,0,0-3.382,6.492,8.211,8.211,0,0,0,3.293,6.4.977.977,0,0,1,.356.742,1.152,1.152,0,0,1-.178.742C70.912,22.22,70.645,22.312,70.289,22.312Z" transform="translate(-65.573 -5.804)" fill="#fff"/>
                </g>
              </g>
            </g>
            <g id="Group_99" data-name="Group 99" transform="translate(8.457 4.266)">
              <g id="Group_98" data-name="Group 98">
                <g id="Group_97" data-name="Group 97">
                  <path id="Path_116" data-name="Path 116" d="M63.111,23.92a1.23,1.23,0,0,1-.534-.185,12.185,12.185,0,0,1-4.895-9.552A12.455,12.455,0,0,1,62.577,4.63a1.248,1.248,0,0,1,.623-.185,1.109,1.109,0,0,1,.8.371.742.742,0,0,1,.178.742.787.787,0,0,1-.356.649,10.051,10.051,0,0,0-4.094,7.883,10.051,10.051,0,0,0,4.094,7.883.977.977,0,0,1,.356.742,1.152,1.152,0,0,1-.178.742A1.219,1.219,0,0,1,63.111,23.92Z" transform="translate(-57.682 -4.444)" fill="#fff"/>
                </g>
              </g>
            </g>
            <g id="Group_102" data-name="Group 102" transform="translate(29.087 5.843)">
              <g id="Group_101" data-name="Group 101">
                <g id="Group_100" data-name="Group 100">
                  <path id="Path_117" data-name="Path 117" d="M79.613,22.4a1.052,1.052,0,0,1-.712-.371,1.017,1.017,0,0,1,.178-1.391,8.655,8.655,0,0,0,3.382-6.492,8.174,8.174,0,0,0-3.293-6.306.92.92,0,0,1-.356-.464V7.1a1.289,1.289,0,0,1,.178-.742.854.854,0,0,1,.8-.371,1.23,1.23,0,0,1,.534.185,10.149,10.149,0,0,1,4.183,7.976,10.6,10.6,0,0,1-4.094,7.976A2.545,2.545,0,0,1,79.613,22.4Z" transform="translate(-78.707 -5.986)" fill="#fff"/>
                </g>
              </g>
            </g>
            <g id="Group_105" data-name="Group 105">
              <g id="Group_104" data-name="Group 104">
                <g id="Group_103" data-name="Group 103">
                  <path id="Path_118" data-name="Path 118" d="M56.719,28.28a1.23,1.23,0,0,1-.534-.185c-4.628-3.71-7.119-8.532-7.119-13.818C48.977,8.99,51.558,4.167,56.1.458a1.248,1.248,0,0,1,.623-.185,1.109,1.109,0,0,1,.8.371,1.031,1.031,0,0,1,.178.742.787.787,0,0,1-.356.649c-4.094,3.246-6.319,7.512-6.319,12.149s2.225,8.9,6.319,12.149a.977.977,0,0,1,.356.742,1.152,1.152,0,0,1-.178.742A1.217,1.217,0,0,1,56.719,28.28Z" transform="translate(-49.064 -0.272)" fill="#fff"/>
                </g>
              </g>
            </g>
            <g id="Group_108" data-name="Group 108" transform="translate(36.112 4.359)">
              <g id="Group_107" data-name="Group 107">
                <g id="Group_106" data-name="Group 106">
                  <path id="Path_119" data-name="Path 119" d="M86.778,24.01a1.052,1.052,0,0,1-.712-.371,1.277,1.277,0,0,1,.089-1.484,10.324,10.324,0,0,0,4.183-7.976A10.051,10.051,0,0,0,86.244,6.3a.977.977,0,0,1-.356-.742,1.152,1.152,0,0,1,.178-.742c.089-.185.356-.278.712-.278a1.23,1.23,0,0,1,.534.185,12.185,12.185,0,0,1,4.895,9.552,12.455,12.455,0,0,1-4.895,9.552A1.23,1.23,0,0,1,86.778,24.01Z" transform="translate(-85.866 -4.535)" fill="#fff"/>
                </g>
              </g>
            </g>
          </g>
        </g>
      </g>
    </g>
    <g id="Group_113" data-name="Group 113" transform="translate(0 37.003)">
      <g id="Group_27" transform="translate(24.651)">
        <path id="Path_45" d="M64.179,36.459H52.343l-4.45,8.347H34.011" transform="translate(-28.226 -36.459)" fill="none" stroke="#fff" stroke-linecap="round" stroke-miterlimit="10" stroke-width="2.099"/>
        <ellipse id="Ellipse_7" cx="2.581" cy="2.689" rx="2.581" ry="2.689" transform="translate(0 5.657)" fill="none" stroke="#fff" stroke-linecap="round" stroke-miterlimit="10" stroke-width="2.099"/>
      </g>
      <g id="Group_28" transform="translate(36.932 16.23)">
        <line id="Line_1" x1="10.857" transform="translate(5.696 2.782)" fill="none" stroke="#fff" stroke-linecap="round" stroke-miterlimit="10" stroke-width="2.099"/>
        <ellipse id="Ellipse_8" cx="2.581" cy="2.689" rx="2.581" ry="2.689" fill="none" stroke="#fff" stroke-linecap="round" stroke-miterlimit="10" stroke-width="2.099"/>
      </g>
      <g id="Group_112" data-name="Group 112" transform="translate(0 21.052)">
        <g id="Group_29">
          <path id="Path_46" d="M52.493,67.47H23.481l-2.047-7.883H8.8" transform="translate(-3.102 -56.99)" fill="none" stroke="#fff" stroke-linecap="round" stroke-miterlimit="10" stroke-width="2.099"/>
          <ellipse id="Ellipse_9" cx="2.581" cy="2.689" rx="2.581" ry="2.689" fill="none" stroke="#fff" stroke-linecap="round" stroke-miterlimit="10" stroke-width="2.099"/>
        </g>
        <g id="Group_30" transform="translate(15.129 10.48)">
          <path id="Path_47" d="M37.642,67.3l-2.225,7.326H23.581" transform="translate(-18.508 -67.296)" fill="none" stroke="#fff" stroke-linecap="round" stroke-miterlimit="10" stroke-width="2.099"/>
          <ellipse id="Ellipse_10" cx="2.581" cy="2.689" rx="2.581" ry="2.689" transform="translate(0 4.73)" fill="none" stroke="#fff" stroke-linecap="round" stroke-miterlimit="10" stroke-width="2.099"/>
        </g>
      </g>
    </g>
  </g>
</svg>
