<svg id="electrical_and_electronics" xmlns="http://www.w3.org/2000/svg" width="89.533" height="95.219" viewBox="0 0 89.533 95.219">
  <g id="Group_27" data-name="Group 27">
    <g id="Path_44">
      <path id="Path_41" data-name="Path 41" d="M33.937,52.513,2.871,45.943,31.836,6.237,20.963,38.23,51.3,42.706,22.059,88.03Z" transform="translate(-1.135 -0.238)" fill="rgba(0,0,0,0)"/>
      <path id="Path_42" data-name="Path 42" d="M28.493,12.188,20.269,36.374l-.822,2.476,2.467.286,27.5,4L25.478,80.365l8.954-26.756.731-2.285-2.193-.571L4.645,45.038l23.848-32.85M34.8,0,.99,46.467l31.432,6.57L18.351,95.219,52.889,41.611,22.1,37.135,34.8,0Z" transform="translate(-0.99)" fill="#fff"/>
    </g>
  </g>
  <g id="Group_30" data-name="Group 30" transform="translate(30.196 2.666)">
    <path id="Path_43" data-name="Path 43" d="M69.5,59.108h8.223l1.645-4.856h6.213" transform="translate(-36.465 -4.738)" fill="rgba(0,0,0,0)" stroke="#fff" stroke-linecap="round" stroke-miterlimit="10" stroke-width="1.504"/>
    <line id="Line_2" data-name="Line 2" x2="6.396" y2="0.095" transform="translate(34.769 41.611)" fill="none" stroke="#fff" stroke-linecap="round" stroke-miterlimit="10" stroke-width="1.504"/>
    <path id="Path_44-2" data-name="Path 44" d="M70.686,33.165h9.685l2.01,5.427h8.132" transform="translate(-36.556 -3.933)" fill="rgba(0,0,0,0)" stroke="#fff" stroke-linecap="round" stroke-miterlimit="10" stroke-width="1.504"/>
    <path id="Path_45" data-name="Path 45" d="M77.319,32.892l1.1-4.38h4.569" transform="translate(-37.067 -3.755)" fill="rgba(0,0,0,0)" stroke="#fff" stroke-linecap="round" stroke-miterlimit="10" stroke-width="1.504"/>
    <ellipse id="Ellipse_1" data-name="Ellipse 1" cx="1.919" cy="2" rx="1.919" ry="2" transform="translate(49.48 47.514)" fill="rgba(0,0,0,0)" stroke="#fff" stroke-linecap="round" stroke-miterlimit="10" stroke-width="1.805"/>
    <ellipse id="Ellipse_2" data-name="Ellipse 2" cx="1.919" cy="2" rx="1.919" ry="2" transform="translate(41.165 39.611)" fill="rgba(0,0,0,0)" stroke="#fff" stroke-linecap="round" stroke-miterlimit="10" stroke-width="1.805"/>
    <ellipse id="Ellipse_3" data-name="Ellipse 3" cx="1.919" cy="2" rx="1.919" ry="2" transform="translate(54.597 31.803)" fill="rgba(0,0,0,0)" stroke="#fff" stroke-linecap="round" stroke-miterlimit="10" stroke-width="1.805"/>
    <ellipse id="Ellipse_4" data-name="Ellipse 4" cx="1.736" cy="1.809" rx="1.736" ry="1.809" transform="translate(46.373 22.948)" fill="rgba(0,0,0,0)" stroke="#fff" stroke-linecap="round" stroke-miterlimit="10" stroke-width="1.805"/>
    <g id="Group_28" data-name="Group 28" transform="translate(12.931 63.225)">
      <path id="Path_46" data-name="Path 46" d="M60.786,68.9V83.092h3.472" transform="translate(-48.725 -68.523)" fill="rgba(0,0,0,0)" stroke="#fff" stroke-linecap="round" stroke-miterlimit="10" stroke-width="1.504"/>
      <line id="Line_3" data-name="Line 3" y1="5.237" transform="translate(1.736 2.095)" fill="none" stroke="#fff" stroke-linecap="round" stroke-miterlimit="10" stroke-width="1.504"/>
      <ellipse id="Ellipse_5" data-name="Ellipse 5" cx="1.736" cy="1.809" rx="1.736" ry="1.809" transform="translate(15.807 12.474)" fill="rgba(0,0,0,0)" stroke="#fff" stroke-linecap="round" stroke-miterlimit="10" stroke-width="1.805"/>
      <ellipse id="Ellipse_6" data-name="Ellipse 6" cx="1.736" cy="1.809" rx="1.736" ry="1.809" transform="translate(0 7.998)" fill="rgba(0,0,0,0)" stroke="#fff" stroke-linecap="round" stroke-miterlimit="10" stroke-width="1.805"/>
      <path id="Path_47" data-name="Path 47" d="M59.1,68.508h3.289v3.714L60.748,73.65,59.1,72.222Z" transform="translate(-48.595 -68.508)" fill="#fff"/>
      <path id="Path_48" data-name="Path 48" d="M48.213,68.508h2.741v3.714l-1.462,1.523-1.279-1.523Z" transform="translate(-47.756 -68.508)" fill="#fff"/>
    </g>
    <path id="Path_49" data-name="Path 49" d="M74.044,31.482,75.414,33.2,74.044,34.91H70.389l.091-3.428Z" transform="translate(-38.318 -3.964)" fill="#fff"/>
    <path id="Path_50" data-name="Path 50" d="M74.044,44.55l1.371,1.714-1.371,1.714H70.389l.091-3.428Z" transform="translate(-38.318 -4.368)" fill="#fff"/>
    <path id="Path_51" data-name="Path 51" d="M74.044,57.717l1.371,1.619-1.371,1.809H70.389l.091-3.428Z" transform="translate(-38.318 -5.061)" fill="#fff"/>
    <g id="Group_29" data-name="Group 29" transform="translate(12.931)">
      <line id="Line_4" data-name="Line 4" y2="6.665" transform="translate(1.827 11.712)" fill="none" stroke="#fff" stroke-linecap="round" stroke-miterlimit="10" stroke-width="1.504"/>
      <path id="Path_52" data-name="Path 52" d="M56.224,6.831l-.091,4.475L60.7,12.639v8.094" transform="translate(-48.366 -2.927)" fill="rgba(0,0,0,0)" stroke="#fff" stroke-linecap="round" stroke-miterlimit="10" stroke-width="1.504"/>
      <ellipse id="Ellipse_7" data-name="Ellipse 7" cx="1.919" cy="2" rx="1.919" ry="2" transform="translate(0 6.951)" fill="rgba(0,0,0,0)" stroke="#fff" stroke-linecap="round" stroke-miterlimit="10" stroke-width="1.805"/>
      <ellipse id="Ellipse_8" data-name="Ellipse 8" cx="1.919" cy="2" rx="1.919" ry="2" transform="translate(5.939)" fill="rgba(0,0,0,0)" stroke="#fff" stroke-linecap="round" stroke-miterlimit="10" stroke-width="1.805"/>
      <path id="Path_53" data-name="Path 53" d="M62.689,19.64l-1.645-1.524L59.4,19.545v3.714h3.289Z" transform="translate(-48.618 -3.358)" fill="#fff"/>
      <path id="Path_54" data-name="Path 54" d="M51.3,19.743l-1.645-1.428-1.645,1.428-.091,3.618,3.381.1Z" transform="translate(-47.733 -3.366)" fill="#fff"/>
    </g>
    <path id="Path_55" data-name="Path 55" d="M34.749,24.255l29.422.286A2.839,2.839,0,0,1,66.82,27.3L66.729,63.39a2.839,2.839,0,0,1-2.65,2.761l-18.457-.1" transform="translate(-34.749 -3.593)" fill="rgba(0,0,0,0)" stroke="#fff" stroke-linecap="round" stroke-miterlimit="10" stroke-width="2.149"/>
    <path id="Path_56" data-name="Path 56" d="M51.678,33.759h7.584v6.475" transform="translate(-35.092 -3.956)" fill="rgba(0,0,0,0)" stroke="#fff" stroke-linecap="round" stroke-linejoin="round" stroke-miterlimit="10" stroke-width="2.149"/>
    <path id="Path_57" data-name="Path 57" d="M59.254,50.886v7.332H51.579" transform="translate(-35.084 -4.61)" fill="rgba(0,0,0,0)" stroke="#fff" stroke-linecap="round" stroke-linejoin="round" stroke-miterlimit="10" stroke-width="2.149"/>
  </g>
</svg>
