<svg xmlns="http://www.w3.org/2000/svg" width="92.909" height="81.768" viewBox="0 0 92.909 81.768">
  <g id="mechanical" transform="translate(1.308 1.305)">
    <g id="Group_23" transform="translate(0)">
      <g id="Group_22">
        <path id="Path_36" d="M28.909,71.837l-9.264-2.51a1.282,1.282,0,0,1,0-.837c.187-2.138.374-4.277.655-6.415a.933.933,0,0,0-.468-1.023A16.7,16.7,0,0,1,17.4,59.193a.858.858,0,0,0-1.029-.186c-2.059.744-4.211,1.58-6.363,2.324-.749.279-.842.186-1.216-.465-1.31-2.324-2.714-4.649-4.024-6.973-.374-.651-.374-.744.187-1.3C6.639,51.2,8.323,49.9,10.008,48.5a1.149,1.149,0,0,0,.468-1.395,10.382,10.382,0,0,1-.374-2.975.736.736,0,0,0-.468-.744c-1.965-.93-4.024-1.766-5.989-2.7a2.039,2.039,0,0,1-.749-.465l2.526-9.2a1.306,1.306,0,0,1,.842,0c2.152.186,4.3.372,6.456.651a.943.943,0,0,0,1.029-.465,16.613,16.613,0,0,1,1.871-2.417.845.845,0,0,0,.187-1.023c-.749-2.045-1.591-4.184-2.339-6.322-.281-.744-.187-.837.468-1.209,2.339-1.3,4.679-2.7,7.018-4,.655-.372.749-.372,1.31.186,1.4,1.673,2.714,3.347,4.117,5.02a1.164,1.164,0,0,0,1.4.465,10.578,10.578,0,0,1,2.994-.372.741.741,0,0,0,.749-.465c.936-1.952,1.778-4,2.714-5.95a2.022,2.022,0,0,1,.468-.744l9.264,2.51a1.282,1.282,0,0,1,0,.837c-.187,2.138-.374,4.277-.655,6.415a.933.933,0,0,0,.468,1.023,16.7,16.7,0,0,1,2.433,1.859.858.858,0,0,0,1.029.186c2.059-.744,4.211-1.58,6.363-2.324.749-.279.842-.186,1.216.465,1.31,2.324,2.714,4.649,4.024,6.973.374.651.374.744-.187,1.3-1.684,1.395-3.369,2.7-5.053,4.091a1.149,1.149,0,0,0-.468,1.395,10.382,10.382,0,0,1,.374,2.975.736.736,0,0,0,.468.744c1.965.93,4.024,1.766,5.989,2.7a2.039,2.039,0,0,1,.749.465l-2.526,9.2a1.306,1.306,0,0,1-.842,0c-2.152-.186-4.3-.372-6.456-.651a.943.943,0,0,0-1.029.465A16.612,16.612,0,0,1,48,57.426a.845.845,0,0,0-.187,1.023c.749,2.045,1.591,4.184,2.339,6.322.281.744.187.837-.468,1.209-2.339,1.3-4.679,2.7-7.018,4-.655.372-.749.372-1.31-.186-1.4-1.673-2.714-3.347-4.117-5.02a1.164,1.164,0,0,0-1.4-.465,10.577,10.577,0,0,1-2.994.372.741.741,0,0,0-.749.465c-.936,1.952-1.778,4-2.714,5.95A2.023,2.023,0,0,1,28.909,71.837Z" transform="translate(-2.896 -14.381)" fill="none" stroke="#fff" stroke-linecap="round" stroke-miterlimit="10" stroke-width="2.338"/>
        <path id="Path_37" d="M33.152,52.119a7.484,7.484,0,1,1,7.579-7.438h0A7.564,7.564,0,0,1,33.152,52.119Z" transform="translate(-4.331 -15.953)" fill="none" stroke="#fff" stroke-linecap="round" stroke-miterlimit="10" stroke-width="2.338"/>
        <path id="Path_38" d="M38.186,59.979a14.951,14.951,0,0,1-11.322-.558" transform="translate(-4.407 -17.491)" fill="none" stroke="#fff" stroke-linecap="round" stroke-miterlimit="10" stroke-width="2.338"/>
        <path id="Path_39" d="M17.976,44.064a14.691,14.691,0,0,1,29.382.186,14.192,14.192,0,0,1-5.614,11.342" transform="translate(-3.847 -15.429)" fill="none" stroke="#fff" stroke-linecap="round" stroke-miterlimit="10" stroke-width="2.338"/>
      </g>
    </g>
    <g id="Group_25" transform="translate(52.12 41.279)">
      <g id="Group_24">
        <path id="Path_40" d="M75.926,96.933l-6.176-1.673a.589.589,0,0,1,0-.558c.187-1.395.281-2.882.374-4.277a.566.566,0,0,0-.281-.651,10.278,10.278,0,0,1-1.684-1.3.464.464,0,0,0-.655-.093c-1.4.558-2.807,1.116-4.211,1.58-.468.186-.561.186-.842-.279-.936-1.58-1.778-3.068-2.714-4.649-.281-.465-.281-.465.187-.837,1.123-.93,2.246-1.859,3.369-2.7a.881.881,0,0,0,.374-.93,7.035,7.035,0,0,1-.281-1.952c0-.186-.094-.465-.374-.465-1.31-.558-2.62-1.209-4.024-1.766a2.049,2.049,0,0,1-.468-.279l1.684-6.136a.6.6,0,0,1,.561,0c1.4.186,2.9.279,4.3.372a.572.572,0,0,0,.655-.279,10.227,10.227,0,0,1,1.31-1.673c.187-.186.281-.465.094-.651-.561-1.395-1.123-2.789-1.591-4.184-.094-.558-.094-.651.374-.93C67.5,61.7,69,60.86,70.593,59.93c.468-.279.468-.279.842.186.936,1.116,1.871,2.231,2.714,3.347a.892.892,0,0,0,.936.372,7.166,7.166,0,0,1,1.965-.279c.187,0,.468-.093.468-.372.561-1.3,1.216-2.6,1.778-4a2.03,2.03,0,0,1,.281-.465L85.752,60.4a.589.589,0,0,1,0,.558c-.187,1.395-.281,2.882-.374,4.277a.566.566,0,0,0,.281.651,10.278,10.278,0,0,1,1.684,1.3.464.464,0,0,0,.655.093c1.4-.558,2.807-1.116,4.211-1.58.468-.186.561-.186.842.279.936,1.58,1.778,3.068,2.714,4.649.281.465.281.465-.187.837-1.123.93-2.246,1.859-3.369,2.7a.881.881,0,0,0-.374.93,7.034,7.034,0,0,1,.281,1.952c0,.186.094.465.374.465,1.31.558,2.62,1.209,4.024,1.766a2.048,2.048,0,0,1,.468.279L95.3,85.683a.6.6,0,0,1-.561,0c-1.4-.186-2.9-.279-4.3-.372a.572.572,0,0,0-.655.279,10.228,10.228,0,0,1-1.31,1.673c-.187.186-.281.465-.094.651.561,1.395,1.029,2.789,1.591,4.184.187.465.187.558-.281.837-1.591.93-3.088,1.766-4.679,2.7-.468.279-.468.279-.842-.186-.936-1.116-1.871-2.231-2.714-3.347a.892.892,0,0,0-.936-.372,7.166,7.166,0,0,1-1.965.279c-.187,0-.468.093-.468.372-.561,1.3-1.216,2.6-1.778,4A.854.854,0,0,1,75.926,96.933Z" transform="translate(-58.522 -58.722)" fill="none" stroke="#fff" stroke-linecap="round" stroke-miterlimit="10" stroke-width="1.83"/>
        <path id="Path_41" d="M78.761,83.849a5,5,0,0,1-4.959-5.02A4.938,4.938,0,0,1,78.855,73.9a5,5,0,0,1,4.959,5.02h0A5.121,5.121,0,0,1,78.761,83.849Z" transform="translate(-59.485 -59.77)" fill="none" stroke="#fff" stroke-linecap="round" stroke-miterlimit="10" stroke-width="1.83"/>
        <path id="Path_42" d="M82.08,89.054a9.845,9.845,0,0,1-3.369.558,9.576,9.576,0,0,1-4.211-.93" transform="translate(-59.529 -60.791)" fill="none" stroke="#fff" stroke-linecap="round" stroke-miterlimit="10" stroke-width="1.83"/>
        <path id="Path_43" d="M68.709,78.477a9.779,9.779,0,0,1,19.557.093,9.592,9.592,0,0,1-1.778,5.485A10.214,10.214,0,0,1,84.522,86.1" transform="translate(-59.164 -59.418)" fill="none" stroke="#fff" stroke-linecap="round" stroke-miterlimit="10" stroke-width="1.83"/>
      </g>
    </g>
  </g>
</svg>
