<?xml version="1.0" encoding="utf-8"?>
<!-- Generator: Adobe Illustrator 27.2.0, SVG Export Plug-In . SVG Version: 6.00 Build 0)  -->
<svg version="1.1" id="Layer_1" xmlns="http://www.w3.org/2000/svg" xmlns:xlink="http://www.w3.org/1999/xlink" x="0px" y="0px"
	 viewBox="0 0 39.5 34.7" style="enable-background:new 0 0 39.5 34.7;" xml:space="preserve">
<style type="text/css">
	.st0{fill:#FFFFFF;stroke:#FFFFFF;stroke-width:1.5;stroke-linecap:round;stroke-linejoin:round;stroke-miterlimit:10;}
	.st1{fill:none;stroke:#FFFFFF;stroke-width:1.5;stroke-linecap:round;stroke-linejoin:round;stroke-miterlimit:10;}
	.st2{fill:none;stroke:#006EFF;stroke-width:1.5;stroke-linecap:round;stroke-linejoin:round;stroke-miterlimit:10;}
</style>
<g id="new-and-events-icon" transform="translate(0.75 0.75)">
	<path id="Path_19" class="st0" d="M33.1,33.2H4.9C2.2,33.2,0,31,0,28.3V0h28.2v25c0,0-0.5,4.3,0.7,6.3S33.1,33.2,33.1,33.2z"/>
	<path id="Path_20" class="st1" d="M38,16.2h-9.8v12.1c-0.1,2.7,2,5,4.7,5.1c2.7,0.1,5-2,5.1-4.7c0-0.1,0-0.3,0-0.4V16.2z"/>
	<path id="Path_100" class="st2" d="M4.2,4.2h9.3v9.3H4.2V4.2z"/>
	<path id="Path_101" class="st2" d="M17.3,6.1h6.3"/>
	<path id="Path_102" class="st2" d="M17.3,11.4h6.3"/>
	<path id="Path_103" class="st2" d="M4.2,17.7h19.1"/>
	<path id="Path_104" class="st2" d="M4.2,23.1h19.1"/>
	<path id="Path_105" class="st2" d="M4.2,28.5h19.1"/>
</g>
</svg>
