<svg xmlns="http://www.w3.org/2000/svg" width="17.714" height="13.291" viewBox="0 0 17.714 13.291">
  <g id="email-solid" transform="translate(-2.573 -7.986)">
    <path id="Path_97" data-name="Path 97" d="M20.54,7.992a1.107,1.107,0,0,0-.227,0H4.813a1.107,1.107,0,0,0-.293.044l8,7.966Z" transform="translate(-1.138 0)" fill="#fff"/>
    <path id="Path_98" data-name="Path 98" d="M20.22,9.853l-8.06,8.026a1.107,1.107,0,0,1-1.561,0L2.612,9.914a1.107,1.107,0,0,0-.039.277V21.262A1.107,1.107,0,0,0,3.68,22.369h15.5a1.107,1.107,0,0,0,1.107-1.107V10.191A1.107,1.107,0,0,0,20.22,9.853ZM4.439,21.262H3.669V20.47l4.024-3.991.781.78Zm14.73,0h-.775l-4.035-4,.781-.78,4.024,3.991Z" transform="translate(0 -1.092)" fill="#fff"/>
  </g>
</svg>
