<svg xmlns="http://www.w3.org/2000/svg" width="20.097" height="20.067" viewBox="0 0 20.097 20.067">
  <g id="message-circle" transform="translate(-1.975 -1.978)">
    <circle id="Ellipse_14" data-name="Ellipse 14" cx="1" cy="1" r="1" transform="translate(11 11)" fill="#fff"/>
    <circle id="Ellipse_15" data-name="Ellipse 15" cx="1" cy="1" r="1" transform="translate(15 11)" fill="#fff"/>
    <circle id="Ellipse_16" data-name="Ellipse 16" cx="1" cy="1" r="1" transform="translate(7 11)" fill="#fff"/>
    <path id="Path_143" data-name="Path 143" d="M19.07,4.93a10,10,0,0,0-16.28,11,1.06,1.06,0,0,1,.09.64L2,20.8A.994.994,0,0,0,3,22h.2l4.28-.86a1.26,1.26,0,0,1,.64.09,10,10,0,0,0,11-16.28Zm.83,8.36a8,8,0,0,1-11,6.08,3.26,3.26,0,0,0-1.25-.26,3.43,3.43,0,0,0-.56.05l-2.82.57.57-2.82a3.09,3.09,0,0,0-.21-1.81A8,8,0,1,1,19.9,13.29Z" fill="#fff"/>
  </g>
</svg>
