<svg xmlns="http://www.w3.org/2000/svg" width="14.318" height="15.033" viewBox="0 0 14.318 15.033">
  <path id="Path_96" data-name="Path 96" d="M14.119,12.5,12.1,14.6a1.422,1.422,0,0,1-1.078.43A9.075,9.075,0,0,1,6.393,13.2,18.447,18.447,0,0,1,.99,7.013,8.308,8.308,0,0,1,0,3.485a1.587,1.587,0,0,1,.41-1.147L2.432.22A.652.652,0,0,1,3.525.411L5.149,3.645a.973.973,0,0,1-.182,1.067l-.744.78a.4.4,0,0,0-.076.223A6.679,6.679,0,0,0,6.059,8.678a6.354,6.354,0,0,0,2.648,1.967.4.4,0,0,0,.387-.04l.865-.924a.951.951,0,0,1,1.047-.159s-.721-.454.015,0,2.929,1.816,2.929,1.816a.761.761,0,0,1,.167,1.163Z" transform="translate(0 0)" fill="#fff"/>
</svg>
