<svg xmlns="http://www.w3.org/2000/svg" width="155.902" height="153.26" viewBox="0 0 155.902 153.26">
  <g id="anti-ragging-symbol" transform="translate(-0.236 0.378)">
    <g id="Path_24" data-name="Path 24" transform="translate(0.236 -0.378)" fill="#fff">
      <path d="M 77.95111846923828 148.2598114013672 C 68.09004974365234 148.2598114013672 58.5273551940918 146.3626556396484 49.52866744995117 142.6210632324219 C 45.20507049560547 140.8233184814453 41.03492736816406 138.5982055664062 37.13409423828125 136.0075378417969 C 33.2706413269043 133.4416809082031 29.63783264160156 130.4951477050781 26.3365478515625 127.2498168945312 C 23.0367374420166 124.0059356689453 20.04133224487305 120.437126159668 17.43354797363281 116.6425323486328 C 14.80276107788086 112.8144607543945 12.54357051849365 108.7229385375977 10.71871376037598 104.4816055297852 C 6.924046993255615 95.66210174560547 4.999999523162842 86.29143524169922 4.999999523162842 76.62991333007812 C 4.999999523162842 66.96839141845703 6.924046993255615 57.59774780273438 10.71871376037598 48.77822113037109 C 12.54357051849365 44.53691482543945 14.80276107788086 40.44538879394531 17.43354797363281 36.61731719970703 C 20.04133224487305 32.82270050048828 23.0367374420166 29.2538890838623 26.3365478515625 26.01000785827637 C 29.63783264160156 22.76467514038086 33.2706413269043 19.81817436218262 37.13409423828125 17.25229454040527 C 41.03492736816406 14.66162776947021 45.20507049560547 12.43650817871094 49.52866744995117 10.63877010345459 C 58.5273551940918 6.897175312042236 68.09004974365234 5.000008583068848 77.95111846923828 5.000008583068848 C 87.81216430664062 5.000008583068848 97.37485504150391 6.897175312042236 106.3735504150391 10.63877010345459 C 110.6971664428711 12.43650817871094 114.8673095703125 14.66162776947021 118.7681198120117 17.25229454040527 C 122.6315689086914 19.81817436218262 126.264404296875 22.76467514038086 129.5656890869141 26.01000785827637 C 132.8654937744141 29.2538890838623 135.8609008789062 32.82270050048828 138.4686889648438 36.61731719970703 C 141.0994720458984 40.44538879394531 143.3586730957031 44.53691482543945 145.1835174560547 48.77822113037109 C 148.9781951904297 57.59774780273438 150.9022369384766 66.96839141845703 150.9022369384766 76.62991333007812 C 150.9022369384766 86.29143524169922 148.9781951904297 95.66210174560547 145.1835174560547 104.4816055297852 C 143.3586730957031 108.7229385375977 141.0994720458984 112.8144607543945 138.4686889648438 116.6425323486328 C 135.8609008789062 120.437126159668 132.8654937744141 124.0059356689453 129.5656890869141 127.2498168945312 C 126.264404296875 130.4951477050781 122.6315689086914 133.4416809082031 118.7681198120117 136.0075378417969 C 114.8673095703125 138.5982055664062 110.6971664428711 140.8233184814453 106.3735504150391 142.6210632324219 C 97.37485504150391 146.3626556396484 87.81218719482422 148.2598114013672 77.95111846923828 148.2598114013672 Z" stroke="none"/>
      <path d="M 77.95111846923828 10 C 40.48273468017578 10 10 39.89006042480469 10 76.62991333007812 C 10 113.3697662353516 40.48273468017578 143.2598266601562 77.95111846923828 143.2598266601562 C 115.4195022583008 143.2598266601562 145.9022369384766 113.3697662353516 145.9022369384766 76.62991333007812 C 145.9022369384766 39.89006042480469 115.4195022583008 10 77.95111846923828 10 M 77.95111846923828 0 C 121.0023193359375 0 155.9022369384766 34.30838012695312 155.9022369384766 76.62991333007812 C 155.9022369384766 118.9514465332031 121.0023193359375 153.2598266601562 77.95111846923828 153.2598266601562 C 34.89990997314453 153.2598266601562 0 118.9514465332031 0 76.62991333007812 C 0 34.30838012695312 34.89990997314453 0 77.95111846923828 0 Z" stroke="none" fill="#d10404"/>
    </g>
    <text id="RAGGING" transform="translate(19.236 87.621)" font-size="27" font-family="OpenSansSemiCondensed-ExtraBold, Open Sans SemiCondensed" font-weight="800"><tspan x="0" y="0">RAGGING</tspan></text>
    <path id="Path_21" data-name="Path 21" d="M0,0,17.116.588l4.3,141.92L4.3,141.921Z" transform="translate(105.965 11.622) rotate(34)" fill="#d10404"/>
  </g>
</svg>
