<svg xmlns="http://www.w3.org/2000/svg" width="27" height="26.251" viewBox="0 0 27 26.251">
  <path id="phone-icon" d="M27,20.732a5.994,5.994,0,0,1-.192,1.314,7.257,7.257,0,0,1-.4,1.277A5.093,5.093,0,0,1,24.066,25.3a7.6,7.6,0,0,1-3.567.951,7.824,7.824,0,0,1-1.016-.065,8.074,8.074,0,0,1-1.1-.233q-.6-.168-.9-.27T16.415,25.3q-.767-.28-.94-.336a17.591,17.591,0,0,1-3.356-1.547A28.76,28.76,0,0,1,7.057,19.39a28.274,28.274,0,0,1-4.142-4.922,16.683,16.683,0,0,1-1.592-3.263q-.058-.168-.345-.914T.585,9.257Q.479,8.968.307,8.381a7.477,7.477,0,0,1-.24-1.072A7.2,7.2,0,0,1,0,6.32,7.076,7.076,0,0,1,.978,2.853,5.051,5.051,0,0,1,3.011.578,7.778,7.778,0,0,1,4.324.186,6.5,6.5,0,0,1,5.676,0a1.1,1.1,0,0,1,.4.056Q6.424.168,7.1,1.473q.211.354.575,1.007t.671,1.184q.307.531.594,1,.058.075.336.466a5.181,5.181,0,0,1,.412.662,1.189,1.189,0,0,1,.134.531,1.536,1.536,0,0,1-.547.932A9.268,9.268,0,0,1,8.083,8.278a11.468,11.468,0,0,0-1.189.988q-.547.522-.547.858a1.23,1.23,0,0,0,.1.419,4.008,4.008,0,0,0,.163.382q.067.131.268.447t.221.354a19.619,19.619,0,0,0,3.337,4.381,20.1,20.1,0,0,0,4.506,3.244q.038.019.364.214t.46.261q.134.065.393.158a1.327,1.327,0,0,0,.431.093,1.47,1.47,0,0,0,.882-.531,11.32,11.32,0,0,0,1.016-1.156,9.176,9.176,0,0,1,1.055-1.156,1.605,1.605,0,0,1,.959-.531,1.28,1.28,0,0,1,.547.131,5.389,5.389,0,0,1,.681.4q.4.27.479.326.479.28,1.026.578t1.218.653q.671.354,1.036.559,1.342.653,1.457.988A1.018,1.018,0,0,1,27,20.732Z" fill="#accaff"/>
</svg>
